<svg width="201" height="40" viewBox="0 0 201 40" fill="none" xmlns="http://www.w3.org/2000/svg">
<path d="M15.2847 12.7573C16.2157 12.1359 17.2825 11.6893 18.4269 11.4563V0C14.179 0.368931 10.2997 2.05825 7.21561 4.66018L15.2847 12.7573Z" fill="#EB2B1E"/>
<path d="M30.3753 21.8835C25.4292 21.8835 21.2783 25.301 20.1726 29.9223C19.067 25.3204 14.9161 21.8835 9.96994 21.8835H0C0 27.6893 4.69402 32.3884 10.4937 32.3884H18.2912V40H22.0541V32.4078H29.8516C35.6513 32.4078 40.3453 27.7088 40.3453 21.903H30.3753V21.8835Z" fill="#060606"/>
<path d="M11.5023 18.3689C11.735 17.2233 12.1812 16.1747 12.8019 15.2233L4.71342 7.12622C2.11425 10.2136 0.426735 14.0971 0.058197 18.3495H11.5023V18.3689Z" fill="#FFCD0E"/>
<path d="M21.9377 0V11.4563C23.0822 11.6893 24.1296 12.1359 25.08 12.7573L33.1685 4.66018C30.065 2.05825 26.1856 0.368931 21.9377 0Z" fill="#0080D6"/>
<path d="M27.5434 15.2427C28.1641 16.1747 28.6102 17.2427 28.843 18.3883H40.2677C39.8991 14.1359 38.2116 10.2524 35.6125 7.16504L27.5434 15.2427Z" fill="#00AA39"/>
<path d="M76.2293 13.1652C74.7358 11.6312 72.7379 10.8545 70.3327 10.8545C67.7723 10.8545 65.5805 11.7477 63.8348 13.4953C62.1085 15.2622 61.2356 17.437 61.2356 19.9613C61.2356 22.5049 62.1473 24.6991 63.9318 26.4661C65.7163 28.1942 68.0245 29.068 70.74 29.068C73.2616 29.068 75.5892 28.1942 77.6647 26.4855L75.7444 23.3205C74.2314 24.4855 72.5827 25.068 70.8952 25.068C68.3348 25.068 66.5115 23.7865 65.9102 21.5729L65.8908 21.5146H78.1884C78.4017 20.6603 78.4987 19.7865 78.4987 18.9515C78.5181 16.6409 77.7423 14.6991 76.2293 13.1652ZM65.9102 18.2137L65.9296 18.1554C66.4921 16.0001 68.1603 14.6021 70.1581 14.6021C72.3694 14.6021 73.9405 16.0778 73.9793 18.1748V18.2137H65.9102Z" fill="#060606"/>
<path d="M90.0592 10.835C87.46 10.835 85.2488 11.7282 83.4643 13.4757C81.6798 15.2039 80.7681 17.3592 80.7681 19.9029C80.7681 22.4466 81.6798 24.6408 83.4643 26.4077C85.2488 28.1553 87.46 29.0485 90.0592 29.0485C93.279 29.0485 96.0334 27.4951 97.5851 24.7573L94.3459 22.2718C93.1821 23.9223 91.7661 24.7573 90.1368 24.7573C87.46 24.7573 85.5009 22.7184 85.5009 19.9223C85.5009 17.1456 87.4406 15.1068 90.1368 15.1068C91.8049 15.1068 93.2209 15.9612 94.3459 17.6311L97.5851 15.1068C96.014 12.3495 93.3566 10.835 90.0592 10.835Z" fill="#060606"/>
<path d="M115.372 28.6019V18.2718C115.372 13.6116 112.598 10.835 107.943 10.835C104.917 10.835 102.376 12.0388 100.378 14.3883L102.783 17.2427C104.296 15.6699 105.848 14.8738 107.4 14.8738C109.514 14.8738 110.697 15.9806 110.697 17.9806V18.7961H106.294C102.26 18.7961 99.7382 20.7184 99.7382 23.8252C99.7382 26.932 102.143 29.0097 105.712 29.0097C107.924 29.0097 109.669 28.33 111.008 26.9126L111.085 26.8349V28.6019H115.372ZM110.717 22.1165C110.717 24.1165 109.126 25.6116 107.012 25.6116C105.46 25.6116 104.471 24.8543 104.471 23.6699C104.471 22.466 105.305 21.864 106.954 21.864H110.736V22.1165H110.717Z" fill="#060606"/>
<path d="M128.562 29.0291C130.986 29.0291 133.004 28.1553 134.594 26.4272C136.185 24.699 136.98 22.5048 136.98 19.9029C136.98 17.2815 136.204 15.1456 134.594 13.3981C133.004 11.6699 131.045 10.835 128.562 10.835C126.079 10.835 124.198 11.6893 122.995 13.3981L122.917 13.5146V11.2233H118.631V34.9514H123.305V26.8349L123.383 26.9126C124.682 28.3495 126.389 29.0291 128.562 29.0291ZM123.228 19.9029C123.228 18.4078 123.674 17.165 124.547 16.2913C125.342 15.4952 126.448 15.0485 127.689 15.0485C130.366 15.0485 132.247 17.0485 132.247 19.9223C132.247 22.7378 130.327 24.7573 127.689 24.7573C125.458 24.7767 123.228 23.2621 123.228 19.9029Z" fill="#060606"/>
<path d="M143.575 27.3979C144.758 28.4853 146.484 29.029 148.696 29.029C149.743 29.029 150.829 28.893 151.935 28.6212V24.7183C150.752 24.8154 150.015 24.8542 149.724 24.8542C147.396 24.8542 146.426 24.0581 146.426 22.0969V15.1649H151.353V11.2232H146.426V6.81543H141.752V11.2232H138.997V15.1649H141.752V22.5047C141.752 24.6406 142.372 26.2911 143.575 27.3979Z" fill="#060606"/>
<path d="M162.855 29.0292C165.125 29.0292 167.026 28.2913 168.539 26.8156C170.071 25.2816 170.808 23.3593 170.808 20.9515V11.2234H166.133V21.3399C166.133 23.301 164.756 24.7379 162.855 24.7379C160.877 24.7379 159.5 23.3399 159.5 21.3399V11.2234H154.825V20.9515C154.825 23.3787 155.581 25.3593 157.075 26.8156C158.569 28.2913 160.528 29.0292 162.855 29.0292Z" fill="#060606"/>
<path d="M198.662 13.1652C197.168 11.6312 195.17 10.8545 192.765 10.8545C190.205 10.8545 188.013 11.7477 186.267 13.4953C184.541 15.2622 183.668 17.437 183.668 19.9613C183.668 22.5049 184.58 24.6991 186.364 26.4661C188.149 28.1942 190.457 29.068 193.172 29.068C195.694 29.068 198.022 28.1942 200.097 26.4855L198.177 23.3205C196.664 24.4855 195.015 25.068 193.328 25.068C190.767 25.068 188.944 23.7865 188.343 21.5729L188.323 21.5146H200.621C200.834 20.6603 200.931 19.7865 200.931 18.9515C200.95 16.6409 200.175 14.6991 198.662 13.1652ZM188.343 18.2137L188.362 18.1554C188.924 16.0001 190.593 14.6021 192.59 14.6021C194.802 14.6021 196.373 16.0778 196.412 18.1748V18.2137H188.343Z" fill="#060606"/>
<path d="M53.4963 13.1262C52.0027 14.5825 51.2463 16.5631 51.2463 18.9902V28.7184H55.9209V18.9708C55.9209 17.0097 57.2593 15.6116 59.199 15.5728V10.9126C56.9101 10.932 54.9898 11.6699 53.4963 13.1262Z" fill="#060606"/>
<path d="M181.631 15.4951V10.835C179.323 10.8544 177.403 11.5922 175.929 13.0486C174.435 14.5049 173.679 16.466 173.679 18.9126V28.6407H178.353V18.8932C178.353 16.932 179.711 15.534 181.631 15.4951Z" fill="#060606"/>
</svg>
