<svg width="130" height="32" viewBox="0 0 130 32" fill="none" xmlns="http://www.w3.org/2000/svg">
<g id="Logo-Black" clip-path="url(#clip0_1824_9526)">
<path id="Vector" d="M46.208 5.1322H36.9463V26.8221H40.9432V17.6671H46.208C49.6777 17.6671 52.4831 14.8617 52.4831 11.392C52.4831 7.9223 49.6777 5.1322 46.208 5.1322ZM46.208 13.6991H40.9432V9.11392H46.208C47.4743 9.11392 48.5013 10.1394 48.5013 11.4072C48.5013 12.6751 47.4758 13.7006 46.208 13.7006V13.6991Z" fill="#151515"/>
<path id="Vector_2" d="M70.9302 11.4072C70.9302 7.93754 68.1249 5.1322 64.6552 5.1322H55.4087V26.8221H59.4056V17.6671H62.3618L67.2335 26.8221H71.5169L66.4944 17.4095C69.059 16.6248 70.9287 14.2263 70.9287 11.4057L70.9302 11.4072ZM64.6552 13.6991H59.4056V9.11392H64.6552C65.9215 9.11392 66.9485 10.1394 66.9485 11.4072C66.9485 12.6751 65.923 13.7006 64.6552 13.7006V13.6991Z" fill="#151515"/>
<path id="Vector_3" d="M79.1344 5.1322H75.1375V26.8221H79.1344V5.1322Z" fill="#151515"/>
<path id="Vector_4" d="M102.711 26.8373V26.8526H118.834V22.8709H106.708V17.984H117.266V13.9855H106.708V9.12915H118.834V5.1322H102.711V26.8373Z" fill="#151515"/>
<path id="Vector_5" d="M82.9958 9.12915H94.4L82.9958 22.8709V26.8678H99.1056V22.8709H87.7486L99.1056 9.12915V5.1322H82.9958V9.12915Z" fill="#151515"/>
<path id="Vector_6" d="M32 0H0V32H32V0Z" fill="#151515"/>
<path id="Vector_7" d="M19.4652 16.0076L15.8904 19.5977L19.4652 23.1878L23.0553 26.7626L26.6439 23.1878L23.0553 19.5977L19.4652 16.0076Z" fill="#747474"/>
<path id="Vector_8" d="M26.6439 8.84266L23.0553 5.25256L19.4652 8.84266L15.8904 12.4328L19.4652 16.0076L23.0553 12.4328L26.6439 8.84266Z" fill="#747474"/>
<path id="Vector_9" d="M15.8903 12.4328L12.3002 8.84266L8.72535 5.25256L5.13525 8.84266L8.72535 12.4328L12.3002 16.0076L8.72535 19.5977L5.13525 23.1878L8.72535 26.7627L12.3002 23.1878L15.8903 19.5977L19.4652 16.0076L15.8903 12.4328Z" fill="white"/>
<path id="Vector_10" d="M124.757 5.78287H123.276V9.11392H122.574V5.78287H121.093V5.1322H124.756V5.78287H124.757ZM128.957 9.11392V5.88496L127.732 9.11392H127.067L125.842 5.88496V9.11392H125.166V5.1322H126.341L127.413 8.10668L128.486 5.1322H129.661V9.11392H128.958H128.957Z" fill="#151515"/>
</g>
<defs>
<clipPath id="clip0_1824_9526">
<rect width="129.659" height="32" fill="white"/>
</clipPath>
</defs>
</svg>
